<svg width="30" height="30" viewBox="0 0 30 30" fill="none" xmlns="http://www.w3.org/2000/svg">
<path d="M22.5069 30H7.49307C3.37151 30 0 26.6266 0 22.5069V7.49307C0 3.37151 3.37151 0 7.49307 0H22.5069C26.6285 0 30 3.37151 30 7.49307V22.5069C29.9982 26.6266 26.6266 30 22.5069 30Z" fill="#4ED0F9"/>
<path d="M20.799 10.8681L15 15.5125V6.66895C16.3227 6.66895 17.6436 7.09015 18.7558 7.95843C19.722 8.72511 20.4332 9.73564 20.799 10.8681Z" fill="#4ED0F9"/>
<path d="M21.1001 12.7691V22.3572H15V15.5125L20.799 10.8682C21.0004 11.4686 21.1001 12.1133 21.1001 12.7691Z" fill="#4ED0F9"/>
<path d="M14.9987 6.66895V22.3553H8.90039V12.7672C8.90039 10.8792 9.75574 9.12415 11.2447 7.95659C12.355 7.092 13.6778 6.66895 14.9987 6.66895Z" fill="#4ED0F9"/>
<path d="M14.9996 6.66902C16.3224 6.66902 17.6433 7.09023 18.7554 7.95851C19.7216 8.72518 20.4328 9.73571 20.8005 10.87C21 11.4704 21.0997 12.1133 21.0997 12.7691V22.3572H14.9996H8.90134V12.7691C8.90134 10.8811 9.75668 9.12607 11.2457 7.95851C12.356 7.09208 13.6787 6.66902 14.9996 6.66902ZM14.9996 4.60547C13.1596 4.60547 11.4212 5.20218 9.97468 6.33094C7.97948 7.89385 6.83594 10.2401 6.83594 12.7691V22.3572V24.4207H8.89949H14.9978H21.0961H23.1596V22.3572V12.7691C23.1596 11.8824 23.0229 11.0252 22.7532 10.216C22.2655 8.7104 21.3233 7.36364 20.0338 6.34018C18.578 5.20218 16.8396 4.60547 14.9996 4.60547Z" fill="white"/>
<path d="M19.5767 16.0964C19.5767 16.6211 19.1518 17.0478 18.6252 17.0478C18.1006 17.0478 17.6738 16.6229 17.6738 16.0964C17.6738 15.5718 18.0987 15.145 18.6252 15.145C19.1518 15.145 19.5767 15.5718 19.5767 16.0964Z" fill="white"/>
</svg>
