<svg width="16" height="16" viewBox="0 0 16 16" fill="none" xmlns="http://www.w3.org/2000/svg">
<path d="M12.0037 16H3.99631C1.79814 16 0 14.2009 0 12.0037V3.99631C0 1.79814 1.79814 0 3.99631 0H12.0037C14.2019 0 16 1.79814 16 3.99631V12.0037C15.999 14.2009 14.2009 16 12.0037 16Z" fill="#4ED0F9"/>
<path d="M11.0928 5.79619L8 8.27319V3.55664C8.70546 3.55664 9.40994 3.78129 10.0031 4.24437C10.5184 4.65326 10.8977 5.19221 11.0928 5.79619Z" fill="#4ED0F9"/>
<path d="M11.2534 6.81024V11.9239H8V8.27339L11.0928 5.79639C11.2002 6.1166 11.2534 6.46047 11.2534 6.81024Z" fill="#4ED0F9"/>
<path d="M8.00046 3.55664V11.9227H4.74805V6.80906C4.74805 5.8021 5.20423 4.86608 5.99837 4.24338C6.59052 3.78227 7.29599 3.55664 8.00046 3.55664Z" fill="#4ED0F9"/>
<path d="M8.00045 3.5571C8.70591 3.5571 9.41039 3.78175 10.0035 4.24483C10.5188 4.65372 10.8982 5.19267 11.0942 5.79764C11.2006 6.11785 11.2538 6.46073 11.2538 6.81051V11.9241H8.00045H4.74803V6.81051C4.74803 5.80355 5.20422 4.86753 5.99835 4.24483C6.59051 3.78273 7.29597 3.5571 8.00045 3.5571ZM8.00045 2.45654C7.01911 2.45654 6.09196 2.77479 5.32048 3.3768C4.25637 4.21035 3.64648 5.46165 3.64648 6.81051V11.9241V13.0247H4.74704H7.99946H11.2519H12.3524V11.9241V6.81051C12.3524 6.33757 12.2795 5.8804 12.1357 5.44885C11.8756 4.64584 11.3731 3.92757 10.6853 3.38172C9.90894 2.77479 8.98179 2.45654 8.00045 2.45654Z" fill="white"/>
<path d="M10.4406 8.58457C10.4406 8.86439 10.214 9.09199 9.9332 9.09199C9.65338 9.09199 9.42578 8.86537 9.42578 8.58457C9.42578 8.30475 9.6524 8.07715 9.9332 8.07715C10.214 8.07715 10.4406 8.30475 10.4406 8.58457Z" fill="white"/>
</svg>
