<svg width="36" height="40" viewBox="0 0 36 40" fill="none" xmlns="http://www.w3.org/2000/svg">
<rect width="35.4717" height="35.4717" rx="17.7358" fill="white"/>
<path d="M17.7351 7.39062C12.8379 7.39062 8.86719 11.3921 8.86719 16.3272C8.86719 24.4716 17.7351 28.0824 17.7351 28.0824C17.7351 28.0824 26.603 24.5899 26.603 16.3272C26.603 11.3921 22.6323 7.39062 17.7351 7.39062ZM17.7351 19.7444C15.9285 19.7444 14.4632 18.2679 14.4632 16.4472C14.4632 14.6266 15.9285 13.15 17.7351 13.15C19.5418 13.15 21.007 14.6266 21.007 16.4472C21.007 18.2679 19.5418 19.7444 17.7351 19.7444Z" fill="#4ED0F9"/>
<path d="M17.3584 40L13.4368 33.2075L21.28 33.2075L17.3584 40Z" fill="white"/>
</svg>
